/* XPM */
static char *c36bed9c0c7c4c209f7ad92b487f1e50dIzuBJuIUmJpgiuL[] = {
/* columns rows colors chars-per-pixel */
"80 80 2 1 ",
"  c #464646",
". c SlateGray",
/* pixels */
"                                        ........................................",
"                                        ........................................",
"                                        ........................................",
"                                        ........................................",
"                                        ........................................",
"                                        ........................................",
"                                        ........................................",
"                                        ........................................",
"                                        ........................................",
"                                        ........................................",
"                                        ........................................",
"                                        ........................................",
"                                        ........................................",
"                                        ........................................",
"                                        ........................................",
"                                        ........................................",
"                                        ........................................",
"                                        ........................................",
"                                        ........................................",
"                                        ........................................",
"                                        ........................................",
"                                        ........................................",
"                                        ........................................",
"                                        ........................................",
"                                        ........................................",
"                                        ........................................",
"                                        ........................................",
"                                        ........................................",
"                                        ........................................",
"                                        ........................................",
"                                        ........................................",
"                                        ........................................",
"                                        ........................................",
"                                        ........................................",
"                                        ........................................",
"                                        ........................................",
"                                        ........................................",
"                                        ........................................",
"                                        ........................................",
"                                        ........................................",
"................................................................................",
"................................................................................",
"................................................................................",
"................................................................................",
"................................................................................",
"................................................................................",
"................................................................................",
"................................................................................",
"................................................................................",
"................................................................................",
"................................................................................",
"................................................................................",
"................................................................................",
"................................................................................",
"................................................................................",
"................................................................................",
"................................................................................",
"................................................................................",
"................................................................................",
"................................................................................",
"................................................................................",
"................................................................................",
"................................................................................",
"................................................................................",
"................................................................................",
"................................................................................",
"................................................................................",
"................................................................................",
"................................................................................",
"................................................................................",
"................................................................................",
"................................................................................",
"................................................................................",
"................................................................................",
"................................................................................",
"................................................................................",
"................................................................................",
"................................................................................",
"................................................................................",
"................................................................................"
};
