/* XPM */
static char *_84867f318eb46b8e907dcb75b2db8d2tWxMTwnSaLkd2Dgd[] = {
/* columns rows colors chars-per-pixel */
"80 80 2 1 ",
"  c #464646",
". c SlateGray",
/* pixels */
"........................................                                        ",
"........................................                                        ",
"........................................                                        ",
"........................................                                        ",
"........................................                                        ",
"........................................                                        ",
"........................................                                        ",
"........................................                                        ",
"........................................                                        ",
"........................................                                        ",
"........................................                                        ",
"........................................                                        ",
"........................................                                        ",
"........................................                                        ",
"........................................                                        ",
"........................................                                        ",
"........................................                                        ",
"........................................                                        ",
"........................................                                        ",
"........................................                                        ",
"........................................                                        ",
"........................................                                        ",
"........................................                                        ",
"........................................                                        ",
"........................................                                        ",
"........................................                                        ",
"........................................                                        ",
"........................................                                        ",
"........................................                                        ",
"........................................                                        ",
"........................................                                        ",
"........................................                                        ",
"........................................                                        ",
"........................................                                        ",
"........................................                                        ",
"........................................                                        ",
"........................................                                        ",
"........................................                                        ",
"........................................                                        ",
"........................................                                        ",
"................................................................................",
"................................................................................",
"................................................................................",
"................................................................................",
"................................................................................",
"................................................................................",
"................................................................................",
"................................................................................",
"................................................................................",
"................................................................................",
"................................................................................",
"................................................................................",
"................................................................................",
"................................................................................",
"................................................................................",
"................................................................................",
"................................................................................",
"................................................................................",
"................................................................................",
"................................................................................",
"................................................................................",
"................................................................................",
"................................................................................",
"................................................................................",
"................................................................................",
"................................................................................",
"................................................................................",
"................................................................................",
"................................................................................",
"................................................................................",
"................................................................................",
"................................................................................",
"................................................................................",
"................................................................................",
"................................................................................",
"................................................................................",
"................................................................................",
"................................................................................",
"................................................................................",
"................................................................................"
};
