/* XPM */
static char *_dcd9124eeee4124e9ef9f546c9573d8b44HtRz5z8kMwHL5[] = {
/* columns rows colors chars-per-pixel */
"80 80 2 1 ",
"  c #464646",
". c SlateGray",
/* pixels */
"................................................................................",
"................................................................................",
"................................................................................",
"................................................................................",
"................................................................................",
"................................................................................",
"................................................................................",
"................................................................................",
"................................................................................",
"................................................................................",
"................................................................................",
"................................................................................",
"................................................................................",
"................................................................................",
"................................................................................",
"................................................................................",
"................................................................................",
"................................................................................",
"................................................................................",
"................................................................................",
"................................................................................",
"................................................................................",
"................................................................................",
"................................................................................",
"................................................................................",
"................................................................................",
"................................................................................",
"................................................................................",
"................................................................................",
"................................................................................",
"................................................................................",
"................................................................................",
"................................................................................",
"................................................................................",
"................................................................................",
"................................................................................",
"................................................................................",
"................................................................................",
"................................................................................",
"................................................................................",
"........................................                                        ",
"........................................                                        ",
"........................................                                        ",
"........................................                                        ",
"........................................                                        ",
"........................................                                        ",
"........................................                                        ",
"........................................                                        ",
"........................................                                        ",
"........................................                                        ",
"........................................                                        ",
"........................................                                        ",
"........................................                                        ",
"........................................                                        ",
"........................................                                        ",
"........................................                                        ",
"........................................                                        ",
"........................................                                        ",
"........................................                                        ",
"........................................                                        ",
"........................................                                        ",
"........................................                                        ",
"........................................                                        ",
"........................................                                        ",
"........................................                                        ",
"........................................                                        ",
"........................................                                        ",
"........................................                                        ",
"........................................                                        ",
"........................................                                        ",
"........................................                                        ",
"........................................                                        ",
"........................................                                        ",
"........................................                                        ",
"........................................                                        ",
"........................................                                        ",
"........................................                                        ",
"........................................                                        ",
"........................................                                        ",
"........................................                                        "
};
