/* XPM */
static char *_e2e4fe70f4b48abfe001f8d080b529e4Bs9UjNkHYaUfli9[] = {
/* columns rows colors chars-per-pixel */
"80 80 2 1 ",
"  c #464646",
". c SlateGray",
/* pixels */
"................................................................................",
"................................................................................",
"................................................................................",
"................................................................................",
"................................................................................",
"................................................................................",
"................................................................................",
"................................................................................",
"................................................................................",
"................................................................................",
"................................................................................",
"................................................................................",
"................................................................................",
"................................................................................",
"................................................................................",
"................................................................................",
"................................................................................",
"................................................................................",
"................................................................................",
"................................................................................",
"................................................................................",
"................................................................................",
"................................................................................",
"................................................................................",
"................................................................................",
"................................................................................",
"................................................................................",
"................................................................................",
"................................................................................",
"................................................................................",
"................................................................................",
"................................................................................",
"................................................................................",
"................................................................................",
"................................................................................",
"................................................................................",
"................................................................................",
"................................................................................",
"................................................................................",
"................................................................................",
"                                        ........................................",
"                                        ........................................",
"                                        ........................................",
"                                        ........................................",
"                                        ........................................",
"                                        ........................................",
"                                        ........................................",
"                                        ........................................",
"                                        ........................................",
"                                        ........................................",
"                                        ........................................",
"                                        ........................................",
"                                        ........................................",
"                                        ........................................",
"                                        ........................................",
"                                        ........................................",
"                                        ........................................",
"                                        ........................................",
"                                        ........................................",
"                                        ........................................",
"                                        ........................................",
"                                        ........................................",
"                                        ........................................",
"                                        ........................................",
"                                        ........................................",
"                                        ........................................",
"                                        ........................................",
"                                        ........................................",
"                                        ........................................",
"                                        ........................................",
"                                        ........................................",
"                                        ........................................",
"                                        ........................................",
"                                        ........................................",
"                                        ........................................",
"                                        ........................................",
"                                        ........................................",
"                                        ........................................",
"                                        ........................................",
"                                        ........................................"
};
