/* XPM */
static char *_d796124c0ed4d01cd4525ff2164fec5qr9XWwlR2MffEiTc[] = {
/* columns rows colors chars-per-pixel */
"80 80 2 1 ",
"  c black",
". c #22B14C",
/* pixels */
"................................................................................",
"................................................................................",
"................................................................................",
"................................................................................",
"................................................................................",
"................................................................................",
"................................................................................",
"................................................................................",
"................................................................................",
"................................................................................",
"................................................................................",
"................................................................................",
"................................................................................",
"................................................................................",
"................................................................................",
"................................................................................",
"................................................................................",
"................................................................................",
"................................................................................",
"................................................................................",
"................................................................................",
"................................................................................",
"................................................................................",
"................................................................................",
"................................................................................",
"................................................................................",
"................................................................................",
"................................................................................",
"................................................................................",
"..                ....    ........    ....            ....                    ..",
"..                ....    ........    ....            ....                    ..",
"..                ....    ........    ....            ....                    ..",
"..                ....    ........    ....            ....                    ..",
"..    ................    ........    ........    ................    ..........",
"..    ................    ........    ........    ................    ..........",
"..    ................    ........    ........    ................    ..........",
"..    ................    ........    ........    ................    ..........",
"..            ............        ............    ................    ..........",
"..            ............        ............    ................    ..........",
"..            ............        ............    ................    ..........",
"..            ............        ............    ................    ..........",
"..    ................    ........    ........    ................    ..........",
"..    ................    ........    ........    ................    ..........",
"..    ................    ........    ........    ................    ..........",
"..    ................    ........    ........    ................    ..........",
"..                ....    ........    ....            ............    ..........",
"..                ....    ........    ....            ............    ..........",
"..                ....    ........    ....            ............    ..........",
"..                ....    ........    ....            ............    ..........",
"................................................................................",
"................................................................................",
"................................................................................",
"................................................................................",
"................................................................................",
"................................................................................",
"................................................................................",
"................................................................................",
"................................................................................",
"................................................................................",
"................................................................................",
"................................................................................",
"................................................................................",
"................................................................................",
"................................................................................",
"................................................................................",
"................................................................................",
"................................................................................",
"................................................................................",
"................................................................................",
"................................................................................",
"................................................................................",
"................................................................................",
"................................................................................",
"................................................................................",
"................................................................................",
"................................................................................",
"................................................................................",
"................................................................................",
"................................................................................",
"................................................................................"
};
