/* XPM */
static char *d503e19224484dd5fc440ede2b595d5bE8kcoLZ5XXjnsblz[] = {
/* columns rows colors chars-per-pixel */
"80 80 2 1 ",
"  c black",
". c #ED1C24",
/* pixels */
"................................................................................",
"................................................................................",
"................................................................................",
"................................................................................",
"................................................................................",
"................................................................................",
"................................................................................",
"................................................................................",
"................................................................................",
"................................................................................",
"................................................................................",
"................................................................................",
"................................................................................",
"................................................................................",
"................................................................................",
"................................................................................",
"................................................................................",
"................................................................................",
"................................................................................",
"................................................................................",
"................................................................................",
"................................................................................",
"................................................................................",
"................................................................................",
"................................................................................",
"................................................................................",
"................................................................................",
"................................................................................",
"................................................................................",
"..                ....    ........    ....            ....                    ..",
"..                ....    ........    ....            ....                    ..",
"..                ....    ........    ....            ....                    ..",
"..                ....    ........    ....            ....                    ..",
"..    ................    ........    ........    ................    ..........",
"..    ................    ........    ........    ................    ..........",
"..    ................    ........    ........    ................    ..........",
"..    ................    ........    ........    ................    ..........",
"..            ............        ............    ................    ..........",
"..            ............        ............    ................    ..........",
"..            ............        ............    ................    ..........",
"..            ............        ............    ................    ..........",
"..    ................    ........    ........    ................    ..........",
"..    ................    ........    ........    ................    ..........",
"..    ................    ........    ........    ................    ..........",
"..    ................    ........    ........    ................    ..........",
"..                ....    ........    ....            ............    ..........",
"..                ....    ........    ....            ............    ..........",
"..                ....    ........    ....            ............    ..........",
"..                ....    ........    ....            ............    ..........",
"................................................................................",
"................................................................................",
"................................................................................",
"................................................................................",
"................................................................................",
"................................................................................",
"................................................................................",
"................................................................................",
"................................................................................",
"................................................................................",
"................................................................................",
"................................................................................",
"................................................................................",
"................................................................................",
"................................................................................",
"................................................................................",
"................................................................................",
"................................................................................",
"................................................................................",
"................................................................................",
"................................................................................",
"................................................................................",
"................................................................................",
"................................................................................",
"................................................................................",
"................................................................................",
"................................................................................",
"................................................................................",
"................................................................................",
"................................................................................",
"................................................................................"
};
